<svg xmlns="http://www.w3.org/2000/svg" width="512" height="512" viewBox="0 0 135.467 135.467"><g style="font-size:85.725px;line-height:1.25;fill:#1b9e14;stroke-width:.264583"><path d="M-45.252 107.39q0 1.2-.771 1.971-.686.686-1.286.857-.514.086-.943.086-2.057 0-2.915-4.2-.857-4.287-1.114-15.517-.343-16.202-1.286-16.202-.686 0-3.086 1.115-2.4 1.114-7.287 3.343-4.886 2.229-9.858 4.115l-7.2 2.743.513 15.516q.172 6 .172 7.801 0 9.601-1.972 9.601-.428 0-1.371-.6-1.8-1.286-2.658-8.744-.857-7.458-1.886-30.518-.686-15.688-.686-24.86 0-7.458.686-9.087.515-1.286 1.286-2.143.772-.943 1.372-.943 1.371 0 2.743 17.916 1.371 17.831 2.743 17.831.172 0 1.286-.428 1.114-.515 5.572-2.143 4.544-1.63 11.402-3.772 5.915-1.972 6.858-2.915 1.114-.943 1.885-7.63.686-6.172 1.372-8.23.686-2.142 2.143-2.142 1.886 0 2.486 5.4.686 5.401.772 22.975.085 6.772.171 12.001.172 5.144.257 7.887.172 2.657.258 4.543.085 1.8.171 2.4.086.6.086 1.115.085.429.085.857z" aria-label="H" style="font-family:Purisa;-inkscape-font-specification:Purisa" transform="scale(-1 1)"/></g><path d="M35.108 16.99c-.548 3.262-.441 6.581-.544 9.875-.045 1.436-.214 2.605.071 4.065.305 1.563.979 3.043 1.427 4.565 1.03 3.504 2.61 6.627 4.27 9.806.04.075.18-.04.253 0 .329.183.637.48.994.637.465.205 1.202.072 1.686.072 1.956 0 2.542.028 3.903-1.333.326-.326.827-.667.922-1.116.21-.99.051-1.043-.63-1.593-.592-.479-1.153-1.128-1.636-1.707-1.597-1.918-2.814-4.12-4.28-6.135-.732-1.007-1.519-1.873-1.996-3.067-.546-1.364-.827-2.834-1.355-4.208-.462-1.201-1.459-2.37-1.71-3.633-.136-.692-.225-1.297-.427-1.97-.128-.428-.074-3.204-.275-3.456-.217-.272-.448-.534-.673-.802zM100.52 12.992c.322 4.602-.799 8.934-2.853 13.042-1.218 2.436-2.216 5.006-4.065 7.061-.664.738-1.428 1.685-2.211 2.283-.345.262-1.085.312-1.396.605-.017.017.152.217.18.263.244.393.496.7.706 1.104.438.846 1.685 2.192 2.539 2.55.426.18 1.172.068 1.634.068.21 0 .785.107.984 0 .31-.166.362-.432.71-.78 2.014-2.014 2.853-4.158 3.637-6.847.263-.901.636-1.72.856-2.639.746-3.108.785-6.707.785-9.914 0-.865-.054-5.833-.76-6.364-.23-.172-.497-.288-.746-.432z" style="fill:#1b9e14;fill-opacity:1;stroke:none;stroke-width:.264583px;stroke-linecap:butt;stroke-linejoin:miter;stroke-opacity:1"/></svg>