<svg xmlns="http://www.w3.org/2000/svg" width="1280" height="512" viewBox="0 0 338.667 135.467"><g style="font-size:67.7333px;line-height:1.25;font-family:Comfortaa;-inkscape-font-specification:Comfortaa;stroke-width:.264583;fill:#999"><path d="M200.175 101.907q-.88 0-1.49-.542-.542-.61-.542-1.49V49.007h4.064v50.868q0 .88-.61 1.49-.541.542-1.422.542zm-19.168-49.242q-.813 0-1.355-.474-.474-.542-.474-1.355t.474-1.287q.542-.542 1.355-.542h38.337q.813 0 1.287.542.542.474.542 1.287t-.542 1.355q-.474.474-1.287.474zm53.509 49.58q-5.35 0-9.55-2.37-4.132-2.439-6.503-6.706-2.37-4.267-2.37-9.753 0-5.555 2.235-9.754 2.235-4.267 6.164-6.706 3.928-2.438 9.008-2.438 5.012 0 8.873 2.37 3.86 2.304 6.028 6.435 2.168 4.064 2.168 9.415 0 .88-.542 1.423-.542.474-1.422.474h-29.803v-3.522h30.886l-2.98 2.235q.136-4.403-1.49-7.79-1.626-3.386-4.674-5.283-2.98-1.964-7.044-1.964-3.86 0-6.909 1.964-2.98 1.897-4.741 5.283-1.693 3.387-1.693 7.858 0 4.402 1.828 7.789 1.83 3.387 5.08 5.35 3.252 1.897 7.451 1.897 2.642 0 5.283-.88 2.71-.948 4.267-2.439.542-.541 1.287-.541.813-.068 1.355.406.745.61.745 1.355.068.745-.61 1.354-2.167 1.965-5.69 3.251-3.453 1.287-6.637 1.287zm37.457.068q-3.523 0-7.383-1.287-3.861-1.287-6.435-4.335-.542-.677-.474-1.422.135-.813.88-1.355.678-.474 1.423-.338.813.135 1.287.745 1.964 2.303 4.741 3.25 2.845.881 6.164.881 5.69 0 8.06-2.032t2.37-4.741q0-2.642-2.573-4.335-2.506-1.761-7.79-2.506-6.773-.948-10.024-3.658-3.251-2.709-3.251-6.299 0-3.386 1.693-5.69 1.693-2.37 4.606-3.522 2.98-1.219 6.773-1.219 4.606 0 7.79 1.694 3.183 1.625 5.147 4.402.542.678.339 1.49-.135.745-1.016 1.22-.677.338-1.422.203-.745-.136-1.287-.813-1.694-2.167-4.132-3.251-2.37-1.152-5.554-1.152-4.267 0-6.638 1.83-2.37 1.828-2.37 4.402 0 1.76.948 3.115 1.016 1.287 3.25 2.236 2.236.88 5.961 1.422 5.08.677 7.993 2.303 2.98 1.626 4.2 3.793 1.286 2.1 1.286 4.538 0 3.184-2.032 5.554-2.032 2.371-5.35 3.658-3.32 1.22-7.18 1.22zm38.878-.406q-3.725-.068-6.637-1.694-2.913-1.693-4.539-4.605-1.625-2.98-1.625-6.706V55.171q0-.948.542-1.49.61-.61 1.49-.61.948 0 1.49.61.61.542.61 1.49v33.731q0 3.928 2.438 6.435 2.438 2.438 6.3 2.438h1.49q.948 0 1.49.61.609.541.609 1.49 0 .88-.61 1.49-.541.542-1.49.542zm-18.084-32.038q-.813 0-1.355-.474-.474-.542-.474-1.355t.474-1.287q.542-.542 1.355-.542h18.355q.813 0 1.287.542.542.474.542 1.287t-.542 1.355q-.474.474-1.287.474z" aria-label="Test" style="font-weight:300;-inkscape-font-specification:&quot;Comfortaa Light&quot;;fill:#999"/></g><g style="font-size:67.7333px;line-height:1.25;font-family:Purisa;-inkscape-font-specification:Purisa;stroke-width:.264583"><path d="M90.97 63.288q-3.115 0-6.637 1.287-3.454 1.287-6.164 2.641-2.71 1.287-3.928 1.287-.813 0-.813-.677 0-.948.406-1.626.407-.677 1.49-1.287 1.084-.61 2.032-1.016 1.016-.406 3.184-1.151 2.167-.813 3.725-1.49 3.658-1.423 6.164-1.423 4.47 0 6.976 4.877 1.22 2.371 1.423 4.403.203 1.964.339 11.176.067 5.148.203 8.67.135 3.454.27 4.402l.136.881q0 .948-.88 2.032-.813 1.084-1.22 1.084-1.354 0-2.1-4.267-.744-4.335-.812-4.335-.203 0-.61.745-1.354 2.235-5.486 4.944-4.064 2.642-6.841 2.642-1.694 0-3.996-.61-2.236-.677-3.252-1.422-.745-.61-1.287-2.439-.474-1.828-.474-3.725 0-2.845 1.49-4.877 1.558-2.1 5.487-4.267 4.267-2.506 8.263-2.506 1.626 0 2.71.542 1.083.542 1.625 1.151.542.542.88.542.272 0 1.288.745 1.016.678 1.083.678.271 0 .271-1.49 0-9.077-1.287-12.599-1.219-3.522-3.657-3.522zm3.049 20.997q0-.27-.203-.61-.136-.406-.678-.88-.474-.542-1.287-.948-.745-.474-2.1-.745-1.354-.339-3.047-.339-2.913 0-5.148 1.016-2.168 1.016-3.251 2.574-1.084 1.558-1.626 2.912-.474 1.287-.474 2.303 0 1.694.27 2.303.34.61 1.559 1.287 1.49.745 2.71.745 2.302 0 5.689-1.625 3.454-1.694 3.454-2.439 0-.542 2.032-2.574 2.1-2.1 2.1-2.98zm13.546-38.54q0-2.438 1.558-2.438 1.287 0 1.897 1.557.406.949.88 5.825.542 4.877 1.084 10.973.61 6.096 1.016 8.67l.542 3.929 7.722-7.722q4.131-4.132 5.825-5.554 1.693-1.49 2.506-1.49.474 0 1.016.677.61.677.61 1.355 0 .474-.272.813-.203.27-.61.541-.338.204-1.15 1.084-.813.88-1.762 2.168-3.183 4.538-10.702 10.566-2.709 2.1-2.709 3.522 0 .948 1.22 1.558l7.247 3.387q5.012 2.37 8.331 4.741 3.319 2.37 3.319 3.658 0 1.422-1.355 1.422-1.219 0-3.59-1.626-2.37-1.693-2.98-1.693-.813 0-.813-.542 0-.745-8.263-3.793l-3.59-1.354.474 5.621q.203 2.236.203 3.523 0 2.844-1.422 2.844-2.168 0-2.777-2.98-.542-3.048-1.016-15.375-.407-10.905-1.016-14.224-.61-3.252-1.016-9.415-.407-6.164-.407-10.228zm36.847 27.432q0-12.666 1.897-12.666.338 0 .677.135.407.136.948 1.016.542.813.542 2.303 0 .678-.135 2.303-.136 1.558-.136 3.522 0 5.487.61 13.344.61 7.857 1.287 10.295.677 2.642 2.303 2.642 1.558 0 4.741-2.777 3.929-3.455 7.519-10.77 3.657-7.315 5.08-14.63 1.354-7.18 2.235-7.654.677-.474 1.422-.474 1.626 0 1.626 1.896 0 .949-1.016 7.925-.949 6.977-.949 10.025 0 4.267 1.694 10.634 1.76 6.367 1.76 7.18 0 .677-.541 1.083-.542.407-.948.474-.339.136-.542.136-1.22 0-2.439-3.455-1.151-3.454-2.1-6.908-.88-3.455-1.557-3.455-.136 0-.271.068-.136.068-.339.27-.135.136-.27.34-.136.203-.407.541-.203.34-.406.61-.136.27-.475.813-.338.542-.541.88-2.98 4.674-6.638 7.79-3.59 3.115-6.096 3.115-2.845 0-4.268-1.287-1.422-1.219-2.302-4.47-.813-3.251-1.49-10.295-.475-4.47-.475-10.5z" aria-label="aku" style="fill:#1b9e14" transform="translate(2.633 4.475)"/></g><g style="font-size:85.725px;line-height:1.25;fill:#1b9e14;stroke-width:.264583"><path d="M-45.252 107.39q0 1.2-.771 1.971-.686.686-1.286.857-.514.086-.943.086-2.057 0-2.915-4.2-.857-4.287-1.114-15.517-.343-16.202-1.286-16.202-.686 0-3.086 1.115-2.4 1.114-7.287 3.343-4.886 2.229-9.858 4.115l-7.2 2.743.513 15.516q.172 6 .172 7.801 0 9.601-1.972 9.601-.428 0-1.371-.6-1.8-1.286-2.658-8.744-.857-7.458-1.886-30.518-.686-15.688-.686-24.86 0-7.458.686-9.087.515-1.286 1.286-2.143.772-.943 1.372-.943 1.371 0 2.743 17.916 1.371 17.831 2.743 17.831.172 0 1.286-.428 1.114-.515 5.572-2.143 4.544-1.63 11.402-3.772 5.915-1.972 6.858-2.915 1.114-.943 1.885-7.63.686-6.172 1.372-8.23.686-2.142 2.143-2.142 1.886 0 2.486 5.4.686 5.401.772 22.975.085 6.772.171 12.001.172 5.144.257 7.887.172 2.657.258 4.543.085 1.8.171 2.4.086.6.086 1.115.085.429.085.857z" aria-label="H" style="font-family:Purisa;-inkscape-font-specification:Purisa" transform="matrix(-.92362 0 0 .92362 -14.44 .593)"/></g><path d="M35.108 16.99c-.548 3.262-.441 6.581-.544 9.875-.045 1.436-.214 2.605.071 4.065.305 1.563.979 3.043 1.427 4.565 1.03 3.504 2.61 6.627 4.27 9.806.04.075.18-.04.253 0 .329.183.637.48.994.637.465.205 1.202.072 1.686.072 1.956 0 2.542.028 3.903-1.333.326-.326.827-.667.922-1.116.21-.99.051-1.043-.63-1.593-.592-.479-1.153-1.128-1.636-1.707-1.597-1.918-2.814-4.12-4.28-6.135-.732-1.007-1.519-1.873-1.996-3.067-.546-1.364-.827-2.834-1.355-4.208-.462-1.201-1.459-2.37-1.71-3.633-.136-.692-.225-1.297-.427-1.97-.128-.428-.074-3.204-.275-3.456-.217-.272-.448-.534-.673-.802Zm65.412-3.998c.322 4.602-.799 8.934-2.853 13.042-1.218 2.436-2.216 5.006-4.065 7.061-.664.738-1.428 1.685-2.211 2.283-.345.262-1.085.312-1.396.605-.017.017.152.217.18.263.244.393.496.7.706 1.104.438.846 1.685 2.192 2.539 2.55.426.18 1.172.068 1.634.068.21 0 .785.107.984 0 .31-.166.362-.432.71-.78 2.014-2.014 2.853-4.158 3.637-6.847.263-.901.636-1.72.856-2.639.746-3.108.785-6.707.785-9.914 0-.865-.054-5.833-.76-6.364-.23-.172-.497-.288-.746-.432z" style="fill:#1b9e14;fill-opacity:1;stroke:none;stroke-width:.264583px;stroke-linecap:butt;stroke-linejoin:miter;stroke-opacity:1" transform="translate(-14.44 .593) scale(.92362)"/></svg>