<svg xmlns="http://www.w3.org/2000/svg" xml:space="preserve" width="800" height="800" viewBox="0 0 256 256"><path d="M120.502 243.45c-7.057 0-12.089-3.771-14.169-10.614-1.694-5.572-3.675-11.136-5.488-16.045a391.271 391.271 0 0 0-13.972-6.186c-4.677 2.092-9.771 4.521-15.837 7.556-2.135 1.067-4.202 1.588-6.317 1.588-3.589 0-6.82-1.467-9.604-4.36a563.593 563.593 0 0 0-14.287-14.297c-4.448-4.31-5.426-9.978-2.688-15.554 1.102-2.242 2.145-4.495 3.249-6.881 1.337-2.888 2.713-5.86 4.208-8.822-2.522-5.034-4.6-9.745-6.319-14.332a752.363 752.363 0 0 1-7.154-2.44c-3.288-1.136-6.688-2.31-10.001-3.367-6.163-1.965-9.636-6.771-9.523-13.18.124-7.103.123-13.59-.005-19.833-.134-6.536 3.387-11.449 9.659-13.479 6.262-2.027 11.917-3.97 17.224-5.915a358.553 358.553 0 0 0 6.36-13.856c-2.061-4.599-4.436-9.577-7.541-15.818-2.843-5.714-1.837-11.523 2.758-15.938C46.52 46.429 50.95 41.993 55 37.711c3.443-3.639 7.163-4.403 9.677-4.403 2.871 0 5.152.971 6.618 1.701 4.749 2.363 10.278 5.081 15.908 7.647a338.354 338.354 0 0 0 13.775-5.543c2.271-5.772 4.281-11.491 5.816-15.945 2.024-5.87 6.725-9.237 12.897-9.237l.31.003c3.223.055 6.583.083 9.99.083 3.291 0 6.745-.026 10.269-.077l.243-.001c6.031 0 10.636 3.337 12.63 9.156 1.055 3.074 2.201 6.225 3.311 9.271.795 2.187 1.613 4.432 2.412 6.691 2.826.999 5.541 2.074 8.184 3.121 2.01.797 3.929 1.558 5.841 2.265 4.817-2.154 9.992-4.623 15.752-7.515 2.28-1.143 4.438-1.698 6.609-1.698 2.517 0 6.241.768 9.702 4.428 2.16 2.287 4.453 4.602 6.668 6.84 2.535 2.56 5.156 5.208 7.707 7.933 3.396 3.634 4.416 9.831 2.375 14.418-1.459 3.273-2.996 6.502-4.481 9.625-1.196 2.517-2.344 4.923-3.444 7.339.735 1.95 1.518 3.902 2.334 5.944 1.01 2.531 2.051 5.135 3.029 7.801 2.512.871 4.971 1.789 7.365 2.682 2.755 1.028 5.355 1.999 7.988 2.889 6.246 2.11 9.748 7.138 9.604 13.795-.169 7.626-.163 13.473.019 18.958.129 3.931-.979 10.978-9.853 14.025-5.563 1.92-10.539 3.747-15.132 5.561a369.185 369.185 0 0 0-5.18 13.81c1.066 2.322 2.188 4.671 3.274 6.955 1.501 3.149 3.054 6.406 4.526 9.703 1.855 4.139 1.73 10.467-2.109 14.534a454.938 454.938 0 0 1-6.449 6.688c-.813.83-1.635 1.658-2.453 2.486-2.225 2.248-4.323 4.373-6.383 6.566-1.941 2.07-4.404 3.368-7.123 3.753-.545.078-1.113.119-1.68.119-3.387 0-5.902-1.405-7.254-2.16-.12-.065-.238-.136-.355-.194-.918-.447-1.864-.879-2.813-1.312-.58-.265-1.161-.526-1.738-.798a616.282 616.282 0 0 1-7.888-3.721c-.771-.371-1.542-.746-2.313-1.125a245.356 245.356 0 0 1-14.189 6.129 609.1 609.1 0 0 1-2.025 5.85c-1.308 3.725-2.539 7.24-3.646 10.813-1.938 6.263-6.806 9.853-13.354 9.854l-.438-.005a485.213 485.213 0 0 0-9.788-.115c-3.08 0-5.842.045-8.444.14-.277.007-.542.012-.799.012z" style="fill:#d1d1d1"/><path d="M195.82 210.063c-1.146.164-2.348-.763-3.484-1.314-1.563-.764-3.158-1.462-4.734-2.195a624.113 624.113 0 0 1-7.763-3.658 325.703 325.703 0 0 1-4.237-2.08c-1.968-.986-3.306-.686-5.166.203a234.626 234.626 0 0 1-16.541 7.145c-1.967.76-3.1 1.723-3.75 3.688-2.078 6.271-4.424 12.457-6.375 18.767-.709 2.295-1.832 2.849-4.035 2.804-6.262-.124-12.534-.195-18.792.026-2.833.102-4.19-.716-5.041-3.515-1.92-6.315-4.158-12.543-6.466-18.729-.411-1.104-1.624-2.188-2.735-2.709-5.756-2.697-11.562-5.3-17.441-7.72-1.314-.539-3.216-.726-4.457-.184-6.159 2.697-12.223 5.622-18.239 8.631-1.796.897-2.866.67-4.243-.763a578.146 578.146 0 0 0-14.539-14.55c-1.334-1.293-1.469-2.322-.666-3.959 2.758-5.613 5.207-11.383 8.085-16.932 1.313-2.533.983-4.408-.252-6.845-2.554-5.034-4.889-10.216-6.802-15.521-.84-2.329-2.021-3.426-4.199-4.137-6.281-2.056-12.488-4.334-18.782-6.346-1.899-.604-2.604-1.463-2.568-3.479.118-6.736.132-13.479-.006-20.213-.044-2.168.733-3.111 2.741-3.761 6.51-2.108 12.989-4.324 19.401-6.71 1.215-.451 2.441-1.693 3.024-2.883a366.687 366.687 0 0 0 7.95-17.336c.544-1.278.704-3.164.168-4.385-2.704-6.158-5.63-12.22-8.627-18.243-.883-1.774-.723-2.874.733-4.272 4.86-4.666 9.653-9.411 14.282-14.305 1.564-1.654 2.781-1.514 4.571-.623 6.022 2.997 12.071 5.948 18.21 8.695 1.161.521 2.918.394 4.163-.07a345.609 345.609 0 0 0 17.047-6.859c1.308-.569 2.758-1.778 3.269-3.045 2.421-6.014 4.61-12.124 6.724-18.254.65-1.885 1.604-2.528 3.586-2.495 6.855.117 13.716.105 20.57.006 1.871-.026 2.682.685 3.27 2.399 2.064 6.024 4.348 11.975 6.434 17.993.677 1.947 1.73 2.908 3.799 3.598 5.693 1.901 11.197 4.361 16.853 6.383 1.339.478 3.195.587 4.447.037 6.048-2.657 12.009-5.52 17.913-8.484 1.857-.932 3.043-.94 4.559.663 4.709 4.98 9.657 9.733 14.342 14.737.688.735.957 2.579.539 3.518-2.832 6.357-5.986 12.571-8.813 18.931-.513 1.147-.353 2.879.104 4.12 2.023 5.527 4.396 10.929 6.366 16.474.729 2.046 1.563 3.333 3.759 4.061 5.819 1.93 11.504 4.272 17.313 6.236 2.182.737 2.855 1.861 2.807 4.104-.145 6.498-.193 13.007.021 19.504.082 2.53-.924 3.489-3.106 4.239-5.909 2.039-11.786 4.188-17.583 6.523-1.191.479-2.386 1.806-2.879 3.023a377.74 377.74 0 0 0-6.693 17.852c-.396 1.146-.278 2.766.227 3.883 2.764 6.132 5.798 12.142 8.542 18.281.444.995.401 2.897-.252 3.592a437.843 437.843 0 0 1-6.313 6.543c-3.01 3.065-6.059 6.091-8.996 9.225-.412.424-.824.631-1.244.69zm-23.737-83.383c.065-23.207-18.606-42.196-41.567-42.272-23.586-.079-42.52 18.377-42.604 41.532-.087 23.701 18.489 42.607 41.895 42.64 23.393.034 42.211-18.615 42.276-41.9z" style="fill:#464646"/></svg>