<svg xmlns="http://www.w3.org/2000/svg" xml:space="preserve" viewBox="0 0 512 512"><circle cx="256" cy="256" r="248.163" style="fill:#ffc25d"/><path d="M504.163 256H7.837C7.837 118.941 118.941 7.837 256 7.837S504.163 118.941 504.163 256z" style="fill:#ffde90"/><circle cx="256" cy="256" r="208.98" style="fill:#fff"/><path d="M285.503 263.478c-10.333 5.965-23.546 2.425-29.511-7.908s-2.425-23.546 7.908-29.511 84.143-37.412 90.108-27.079c5.965 10.334-58.172 58.533-68.505 64.498z" style="fill:#9fe1ed"/><path d="m256.366 256.209 97.637-57.225c5.966 10.334-58.163 58.528-68.496 64.494-10.117 5.838-23 2.575-29.141-7.269z" style="fill:#5bcde4"/><circle cx="256" cy="256" r="32.2" style="fill:#fff"/><path d="M437.019 74.981C388.668 26.628 324.38 0 256 0S123.332 26.628 74.981 74.981 0 187.62 0 256s26.628 132.668 74.981 181.019S187.62 512 256 512s132.668-26.628 181.019-74.981S512 324.38 512 256s-26.628-132.668-74.981-181.019zm-11.082 350.956c-45.392 45.391-105.744 70.39-169.937 70.39s-124.545-24.998-169.937-70.39C40.672 380.544 15.673 320.193 15.673 256s24.998-124.545 70.39-169.937C131.455 40.672 191.806 15.673 256 15.673s124.545 24.998 169.937 70.39c45.391 45.392 70.39 105.744 70.39 169.937s-24.999 124.544-70.39 169.937z"/><path d="M169.796 404.114h172.408v-47.02H169.796v47.02zm15.673-31.347H326.53v15.673H185.469v-15.673z"/><path d="M256 39.184C136.447 39.184 39.184 136.447 39.184 256S136.447 472.816 256 472.816 472.816 375.553 472.816 256 375.553 39.184 256 39.184zm0 417.959c-110.911 0-201.143-90.232-201.143-201.143S145.089 54.857 256 54.857 457.143 145.089 457.143 256 366.911 457.143 256 457.143z"/><path d="M310.862 198.007c-18.434 6.422-37.258 14.52-46.282 18.893a39.983 39.983 0 0 0-8.581-.936c-22.076 0-40.035 17.961-40.035 40.036s17.96 40.036 40.035 40.036c18.265 0 33.701-12.299 38.49-29.048 8.675-5.948 25.54-18.611 39.996-31.192 24.167-21.037 31.297-32.075 26.303-40.732-5.068-8.77-18.598-7.972-49.926 2.943zM256 280.363c-13.433 0-24.362-10.929-24.362-24.363 0-13.433 10.929-24.363 24.362-24.363s24.362 10.93 24.362 24.363-10.929 24.363-24.362 24.363zm64.465-53.187c-8.445 7.161-17.75 14.437-25.396 20.111-1.87-8.393-6.379-15.797-12.612-21.298 8.071-3.505 18.419-7.725 28.908-11.527 16.83-6.101 26.508-8.429 31.887-9.271-3.316 4.114-9.872 11.036-22.787 21.985zM248.163 67.918h15.673v31.347h-15.673zM213.271 126.815l-13.52-50.462 15.137-4.055 13.52 50.461zM128.55 117.462l36.941 36.942-11.082 11.082-36.942-36.941zM76.356 199.761l50.461 13.52-4.056 15.139-50.462-13.52zM389.228 283.59l50.462 13.52-4.056 15.138-50.462-13.52zM122.778 283.597l4.056 15.139-50.461 13.52-4.057-15.138zM385.177 213.266l50.462-13.52 4.056 15.139-50.462 13.52zM346.507 154.405l36.941-36.942 11.083 11.082-36.942 36.942zM298.72 126.828l-15.138-4.057 13.526-50.464 15.139 4.058zM170.849 124.18l-15.673-27.146 13.573-7.837 15.673 27.146zM116.346 184.423 89.2 168.75l7.837-13.572 27.145 15.673zM395.664 327.58l27.146 15.673-7.836 13.573-27.146-15.673zM67.918 248.163h31.347v15.673H67.918zM412.735 248.163h31.347v15.673h-31.347zM116.344 327.579l7.837 13.572-27.146 15.673-7.836-13.572zM387.822 170.847l27.146-15.673 7.836 13.573-27.145 15.673zM341.15 124.188l-13.574-7.836 15.673-27.146 13.573 7.837z"/></svg>