<svg xmlns="http://www.w3.org/2000/svg" xml:space="preserve" width="800" height="800" viewBox="0 0 512 512"><path d="M203.8 11.8H38.253c-17.067 0-30.72 13.653-30.72 30.72v100.693c0 17.067 13.653 30.72 30.72 30.72 0 0 11.947-8.533 42.667-8.533s58.88 3.413 82.773 8.533H203.8c17.067 0 30.72-13.653 30.72-30.72V42.52c0-17.067-13.653-30.72-30.72-30.72" style="fill:#fff" transform="translate(1 1)"/><path d="M471.747 11.8H306.2c-17.067 0-30.72 13.653-30.72 30.72v100.693c0 17.067 13.653 30.72 30.72 30.72 0 0 11.947-8.533 42.667-8.533s58.88 3.413 82.773 8.533h40.107c17.067 0 30.72-13.653 30.72-30.72V42.52c0-17.067-13.654-30.72-30.72-30.72" style="fill:#ccc" transform="translate(1 1)"/><path d="M446.147 11.8H63.853c-17.067 0-30.72 13.653-30.72 30.72v100.693c0 17.067 13.653 30.72 30.72 30.72h382.293c17.067 0 30.72-13.653 30.72-30.72V42.52c.001-17.067-13.653-30.72-30.719-30.72" style="fill:#e2e3e5" transform="translate(1 1)"/><path d="M118.467 92.867c0 16.213-13.653 29.867-29.867 29.867S58.733 109.08 58.733 92.867 72.387 63 88.6 63s29.867 13.653 29.867 29.867" style="fill:#e0e0e0" transform="translate(1 1)"/><path d="M71.533 64.707c0 5.12-2.56 10.24-8.533 10.24v36.693c.853 0 1.707-.853 2.56-.853 5.973 0 9.387 5.12 8.533 9.387 11.093-4.267 17.92-15.36 17.92-27.307.854-13.654-7.68-24.747-20.48-28.16" style="fill:#f0f0f0" transform="translate(1 1)"/><path d="M203.8 173.933H38.253c-17.067 0-30.72 13.653-30.72 30.72v100.693c0 17.067 13.653 30.72 30.72 30.72 0 0 11.947-8.533 42.667-8.533s58.88 3.413 82.773 8.533H203.8c17.067 0 30.72-13.653 30.72-30.72V204.653c0-17.066-13.653-30.72-30.72-30.72" style="fill:#fff" transform="translate(1 1)"/><path d="M471.747 173.933H306.2c-17.067 0-30.72 13.653-30.72 30.72v100.693c0 17.067 13.653 30.72 30.72 30.72 0 0 11.947-8.533 42.667-8.533s58.88 3.413 82.773 8.533h40.107c17.067 0 30.72-13.653 30.72-30.72V204.653a30.593 30.593 0 0 0-30.72-30.72" style="fill:#ccc" transform="translate(1 1)"/><path d="M446.147 173.933H63.853c-17.067 0-30.72 13.653-30.72 30.72v100.693c0 17.067 13.653 30.72 30.72 30.72h382.293c17.067 0 30.72-13.653 30.72-30.72V204.653c.001-17.066-13.653-30.72-30.719-30.72" style="fill:#e2e3e5" transform="translate(1 1)"/><path d="M118.467 255c0 16.213-13.653 29.867-29.867 29.867S58.733 271.213 58.733 255s13.653-29.867 29.867-29.867 29.867 13.654 29.867 29.867" style="fill:#e0e0e0" transform="translate(1 1)"/><path d="M71.533 226.84c0 5.12-2.56 10.24-8.533 10.24v36.693c.853 0 1.707-.853 2.56-.853 5.973 0 9.387 5.12 8.533 9.387 11.093-4.267 17.92-15.36 17.92-27.307.854-13.653-7.68-24.747-20.48-28.16" style="fill:#f0f0f0" transform="translate(1 1)"/><path d="M203.8 336.067H38.253c-17.067 0-30.72 13.653-30.72 30.72V467.48c0 17.067 13.653 30.72 30.72 30.72 0 0 11.947-8.533 42.667-8.533s58.88 3.413 82.773 8.533H203.8c17.067 0 30.72-13.653 30.72-30.72V366.787c0-17.067-13.653-30.72-30.72-30.72" style="fill:#fff" transform="translate(1 1)"/><path d="M471.747 336.067H306.2c-17.067 0-30.72 13.653-30.72 30.72V467.48c0 17.067 13.653 30.72 30.72 30.72 0 0 11.947-8.533 42.667-8.533s58.88 3.413 82.773 8.533h40.107c17.067 0 30.72-13.653 30.72-30.72V366.787c0-17.067-13.654-30.72-30.72-30.72" style="fill:#ccc" transform="translate(1 1)"/><path d="M446.147 336.067H63.853c-17.067 0-30.72 13.653-30.72 30.72V467.48c0 17.067 13.653 30.72 30.72 30.72h382.293c17.067 0 30.72-13.653 30.72-30.72V366.787c.001-17.067-13.653-30.72-30.719-30.72" style="fill:#e2e3e5" transform="translate(1 1)"/><path d="M118.467 417.133c0 16.213-13.653 29.867-29.867 29.867s-29.867-13.653-29.867-29.867 13.653-29.867 29.867-29.867 29.867 13.654 29.867 29.867" style="fill:#e0e0e0" transform="translate(1 1)"/><path d="M71.533 388.973c0 5.12-2.56 10.24-8.533 10.24v36.693c.853 0 1.707-.853 2.56-.853 5.973 0 9.387 5.12 8.533 9.387 11.093-4.267 17.92-15.36 17.92-27.307.854-13.653-7.68-24.746-20.48-28.16" style="fill:#f0f0f0" transform="translate(1 1)"/><path d="M88.6 131.267c-21.333 0-38.4-17.067-38.4-38.4s17.067-38.4 38.4-38.4 38.4 17.067 38.4 38.4-17.067 38.4-38.4 38.4zm0-59.734c-11.947 0-21.333 9.387-21.333 21.333S76.653 114.2 88.6 114.2s21.333-9.387 21.333-21.333-9.386-21.334-21.333-21.334zM434.2 80.067c0 5.12-3.413 8.533-8.533 8.533s-8.533-3.413-8.533-8.533 3.413-8.533 8.533-8.533 8.533 3.413 8.533 8.533M400.067 80.067c0 5.12-3.413 8.533-8.533 8.533S383 85.187 383 80.067s3.413-8.533 8.533-8.533 8.534 3.413 8.534 8.533M451.267 105.667c0 5.12-3.413 8.533-8.533 8.533-5.12 0-8.533-3.413-8.533-8.533s3.413-8.533 8.533-8.533c5.119-.001 8.533 3.413 8.533 8.533M417.133 105.667c0 5.12-3.413 8.533-8.533 8.533-5.12 0-8.533-3.413-8.533-8.533s3.413-8.533 8.533-8.533c5.12-.001 8.533 3.413 8.533 8.533M365.933 80.067c0 5.12-3.413 8.533-8.533 8.533s-8.533-3.413-8.533-8.533 3.413-8.533 8.533-8.533 8.533 3.413 8.533 8.533M383 105.667c0 5.12-3.413 8.533-8.533 8.533-5.12 0-8.533-3.413-8.533-8.533s3.413-8.533 8.533-8.533c5.12-.001 8.533 3.413 8.533 8.533M331.8 80.067c0 5.12-3.413 8.533-8.533 8.533-5.12 0-8.533-3.413-8.533-8.533s3.413-8.533 8.533-8.533c5.12-.001 8.533 3.413 8.533 8.533M348.867 105.667c0 5.12-3.413 8.533-8.533 8.533-5.12 0-8.533-3.413-8.533-8.533s3.413-8.533 8.533-8.533c5.119-.001 8.533 3.413 8.533 8.533M297.667 80.067c0 5.12-3.413 8.533-8.533 8.533-5.12 0-8.533-3.413-8.533-8.533s3.413-8.533 8.533-8.533c5.119-.001 8.533 3.413 8.533 8.533M314.733 105.667c0 5.12-3.413 8.533-8.533 8.533s-8.533-3.413-8.533-8.533 3.413-8.533 8.533-8.533 8.533 3.413 8.533 8.533" style="fill:#b6b6b6" transform="translate(1 1)"/><path d="M471.747 182.467H38.253C16.92 182.467-1 164.547-1 143.213V42.52C-1 21.187 16.92 3.267 38.253 3.267h433.493C493.08 3.267 511 21.187 511 42.52v100.693c0 21.334-17.92 39.254-39.253 39.254zM38.253 20.333c-11.947 0-22.187 10.24-22.187 22.187v100.693c0 11.947 10.24 22.187 22.187 22.187h433.493c11.947 0 22.187-10.24 22.187-22.187V42.52c0-11.947-10.24-22.187-22.187-22.187H38.253zM88.6 293.4c-21.333 0-38.4-17.067-38.4-38.4s17.067-38.4 38.4-38.4S127 233.667 127 255s-17.067 38.4-38.4 38.4zm0-59.733c-11.947 0-21.333 9.387-21.333 21.333s9.387 21.333 21.333 21.333 21.333-9.387 21.333-21.333-9.386-21.333-21.333-21.333zM434.2 242.2c0 5.12-3.413 8.533-8.533 8.533s-8.533-3.413-8.533-8.533 3.413-8.533 8.533-8.533 8.533 3.413 8.533 8.533M400.067 242.2c0 5.12-3.413 8.533-8.533 8.533S383 247.32 383 242.2s3.413-8.533 8.533-8.533 8.534 3.413 8.534 8.533M451.267 267.8c0 5.12-3.413 8.533-8.533 8.533-5.12 0-8.533-3.413-8.533-8.533s3.413-8.533 8.533-8.533c5.119 0 8.533 3.413 8.533 8.533M417.133 267.8c0 5.12-3.413 8.533-8.533 8.533-5.12 0-8.533-3.413-8.533-8.533s3.413-8.533 8.533-8.533c5.12 0 8.533 3.413 8.533 8.533M365.933 242.2c0 5.12-3.413 8.533-8.533 8.533s-8.533-3.413-8.533-8.533 3.413-8.533 8.533-8.533 8.533 3.413 8.533 8.533M383 267.8c0 5.12-3.413 8.533-8.533 8.533-5.12 0-8.533-3.413-8.533-8.533s3.413-8.533 8.533-8.533c5.12 0 8.533 3.413 8.533 8.533M331.8 242.2c0 5.12-3.413 8.533-8.533 8.533-5.12 0-8.533-3.413-8.533-8.533s3.413-8.533 8.533-8.533c5.12 0 8.533 3.413 8.533 8.533M348.867 267.8c0 5.12-3.413 8.533-8.533 8.533-5.12 0-8.533-3.413-8.533-8.533s3.413-8.533 8.533-8.533c5.119 0 8.533 3.413 8.533 8.533M297.667 242.2c0 5.12-3.413 8.533-8.533 8.533-5.12 0-8.533-3.413-8.533-8.533s3.413-8.533 8.533-8.533c5.119 0 8.533 3.413 8.533 8.533M314.733 267.8c0 5.12-3.413 8.533-8.533 8.533s-8.533-3.413-8.533-8.533 3.413-8.533 8.533-8.533 8.533 3.413 8.533 8.533" style="fill:#b6b6b6" transform="translate(1 1)"/><path d="M471.747 344.6H38.253C16.92 344.6-1 326.68-1 305.347V204.653C-1 183.32 16.92 165.4 38.253 165.4h433.493c21.333 0 39.253 17.92 39.253 39.253v100.693C511 326.68 493.08 344.6 471.747 344.6zM38.253 182.467c-11.947 0-22.187 10.24-22.187 22.187v100.693c0 11.947 10.24 22.187 22.187 22.187h433.493c11.947 0 22.187-10.24 22.187-22.187V204.653c0-11.947-10.24-22.187-22.187-22.187H38.253zM88.6 455.533c-21.333 0-38.4-17.067-38.4-38.4s17.067-38.4 38.4-38.4 38.4 17.067 38.4 38.4c0 21.334-17.067 38.4-38.4 38.4zm0-59.733c-11.947 0-21.333 9.387-21.333 21.333s9.387 21.333 21.333 21.333 21.333-9.387 21.333-21.333S100.547 395.8 88.6 395.8zM434.2 404.333c0 5.12-3.413 8.533-8.533 8.533s-8.533-3.413-8.533-8.533c0-5.12 3.413-8.533 8.533-8.533s8.533 3.413 8.533 8.533M400.067 404.333c0 5.12-3.413 8.533-8.533 8.533S383 409.453 383 404.333c0-5.12 3.413-8.533 8.533-8.533s8.534 3.413 8.534 8.533M451.267 429.933c0 5.12-3.413 8.533-8.533 8.533-5.12 0-8.533-3.413-8.533-8.533s3.413-8.533 8.533-8.533c5.119 0 8.533 3.413 8.533 8.533M417.133 429.933c0 5.12-3.413 8.533-8.533 8.533-5.12 0-8.533-3.413-8.533-8.533s3.413-8.533 8.533-8.533c5.12 0 8.533 3.413 8.533 8.533M365.933 404.333c0 5.12-3.413 8.533-8.533 8.533s-8.533-3.413-8.533-8.533c0-5.12 3.413-8.533 8.533-8.533s8.533 3.413 8.533 8.533M383 429.933c0 5.12-3.413 8.533-8.533 8.533-5.12 0-8.533-3.413-8.533-8.533s3.413-8.533 8.533-8.533c5.12 0 8.533 3.413 8.533 8.533M331.8 404.333c0 5.12-3.413 8.533-8.533 8.533-5.12 0-8.533-3.413-8.533-8.533 0-5.12 3.413-8.533 8.533-8.533 5.12 0 8.533 3.413 8.533 8.533M348.867 429.933c0 5.12-3.413 8.533-8.533 8.533-5.12 0-8.533-3.413-8.533-8.533s3.413-8.533 8.533-8.533c5.119 0 8.533 3.413 8.533 8.533M297.667 404.333c0 5.12-3.413 8.533-8.533 8.533-5.12 0-8.533-3.413-8.533-8.533 0-5.12 3.413-8.533 8.533-8.533 5.119 0 8.533 3.413 8.533 8.533M314.733 429.933c0 5.12-3.413 8.533-8.533 8.533s-8.533-3.413-8.533-8.533 3.413-8.533 8.533-8.533 8.533 3.413 8.533 8.533" style="fill:#b6b6b6" transform="translate(1 1)"/><path d="M471.747 506.733H38.253C16.92 506.733-1 488.813-1 467.48V366.787c0-21.333 17.92-39.253 39.253-39.253h433.493c21.333 0 39.253 17.92 39.253 39.253V467.48c.001 21.333-17.919 39.253-39.252 39.253zM38.253 344.6c-11.947 0-22.187 10.24-22.187 22.187V467.48c0 11.947 10.24 22.187 22.187 22.187h433.493c11.947 0 22.187-10.24 22.187-22.187V366.787c0-11.947-10.24-22.187-22.187-22.187H38.253z" style="fill:#b6b6b6" transform="translate(1 1)"/></svg>