<svg xmlns="http://www.w3.org/2000/svg" width="1200" height="500" viewBox="0 0 317.5 132.292"><g style="font-size:67.7333px;line-height:1.25;font-family:Comfortaa;-inkscape-font-specification:Comfortaa;fill:#999;stroke-width:.264583"><path d="M205.83 102.789q-3.726-.068-6.639-1.693-2.912-1.694-4.538-4.606-1.625-2.98-1.625-6.706V56.053q0-.948.542-1.49.61-.61 1.49-.61.948 0 1.49.61.61.542.61 1.49v33.731q0 3.929 2.438 6.435 2.438 2.438 6.3 2.438h1.49q.947 0 1.49.61.609.542.609 1.49 0 .88-.61 1.49-.542.542-1.49.542zm-18.086-32.038q-.812 0-1.354-.474-.474-.542-.474-1.355t.474-1.287q.542-.542 1.354-.542H206.1q.813 0 1.287.542.542.474.542 1.287t-.542 1.355q-.474.474-1.287.474zm46.601 32.377q-5.35 0-9.55-2.371-4.132-2.438-6.503-6.706-2.37-4.267-2.37-9.753 0-5.554 2.235-9.754 2.235-4.267 6.164-6.705 3.928-2.439 9.008-2.439 5.012 0 8.873 2.37 3.861 2.304 6.028 6.435 2.168 4.064 2.168 9.415 0 .881-.542 1.423-.542.474-1.422.474H218.63v-3.522h30.886l-2.98 2.235q.136-4.403-1.49-7.79-1.626-3.386-4.674-5.283-2.98-1.964-7.044-1.964-3.86 0-6.909 1.964-2.98 1.897-4.741 5.284-1.693 3.386-1.693 7.857 0 4.402 1.828 7.79 1.83 3.386 5.08 5.35 3.252 1.897 7.451 1.897 2.642 0 5.283-.88 2.71-.95 4.268-2.44.541-.541 1.286-.541.813-.068 1.355.406.745.61.745 1.355.068.745-.61 1.355-2.167 1.964-5.689 3.25-3.454 1.288-6.638 1.288m37.457.067q-3.522 0-7.383-1.287t-6.435-4.335q-.542-.677-.474-1.422.135-.813.88-1.355.678-.474 1.423-.338.813.135 1.287.745 1.964 2.303 4.741 3.251 2.845.88 6.164.88 5.69 0 8.06-2.031t2.37-4.742q0-2.641-2.573-4.335-2.506-1.76-7.79-2.506-6.773-.948-10.024-3.657t-3.251-6.3q0-3.386 1.693-5.69 1.694-2.37 4.606-3.521 2.98-1.22 6.773-1.22 4.606 0 7.79 1.694 3.183 1.625 5.148 4.402.541.678.338 1.49-.135.746-1.016 1.22-.677.338-1.422.203-.745-.136-1.287-.813-1.693-2.167-4.132-3.251-2.37-1.152-5.554-1.152-4.267 0-6.638 1.83-2.37 1.828-2.37 4.402 0 1.761.948 3.116 1.016 1.287 3.25 2.235 2.236.88 5.961 1.422 5.08.678 7.993 2.303 2.98 1.626 4.2 3.793 1.286 2.1 1.286 4.538 0 3.184-2.032 5.555t-5.35 3.657q-3.32 1.22-7.18 1.22m38.879-.406q-3.726-.068-6.638-1.693-2.913-1.694-4.538-4.606-1.626-2.98-1.626-6.706V56.053q0-.948.542-1.49.61-.61 1.49-.61.948 0 1.49.61.61.542.61 1.49v33.731q0 3.929 2.438 6.435 2.439 2.438 6.3 2.438h1.49q.948 0 1.49.61.61.542.61 1.49 0 .88-.61 1.49-.542.542-1.49.542zm-18.085-32.038q-.813 0-1.355-.474-.474-.542-.474-1.355t.474-1.287q.542-.542 1.355-.542h18.356q.812 0 1.287.542.541.474.541 1.287t-.541 1.355q-.475.474-1.287.474z" style="font-weight:300;font-size:67.7335px;-inkscape-font-specification:&quot;Comfortaa Light&quot;;stroke-width:.0700044" transform="translate(-7.119 2.35)"/></g><g style="font-size:67.7333px;line-height:1.25;font-family:Purisa;-inkscape-font-specification:Purisa;stroke-width:.264583"><path d="M90.97 63.288q-3.115 0-6.637 1.287-3.454 1.287-6.164 2.641-2.71 1.287-3.928 1.287-.813 0-.813-.677 0-.948.406-1.626t1.49-1.287q1.084-.61 2.032-1.016 1.016-.406 3.184-1.151 2.167-.813 3.725-1.49 3.658-1.423 6.164-1.423 4.47 0 6.976 4.877 1.22 2.371 1.423 4.403.203 1.964.339 11.176.067 5.148.203 8.67.135 3.454.27 4.402l.136.881q0 .948-.88 2.032-.813 1.084-1.22 1.084-1.354 0-2.1-4.267-.744-4.335-.812-4.335-.203 0-.61.745-1.354 2.235-5.486 4.944-4.064 2.642-6.841 2.642-1.694 0-3.996-.61-2.236-.677-3.252-1.422-.745-.61-1.287-2.439-.474-1.828-.474-3.725 0-2.845 1.49-4.877 1.558-2.1 5.487-4.267 4.267-2.506 8.263-2.506 1.626 0 2.71.542 1.083.542 1.625 1.151.542.542.88.542.272 0 1.288.745 1.016.678 1.083.678.271 0 .271-1.49 0-9.077-1.287-12.599-1.219-3.522-3.657-3.522zm3.049 20.997q0-.27-.203-.61-.136-.406-.678-.88-.474-.542-1.287-.948-.745-.474-2.1-.745-1.354-.339-3.047-.339-2.913 0-5.148 1.016-2.168 1.016-3.251 2.574-1.084 1.558-1.626 2.912-.474 1.287-.474 2.303 0 1.694.27 2.303.34.61 1.559 1.287 1.49.745 2.71.745 2.302 0 5.689-1.625 3.454-1.694 3.454-2.439 0-.542 2.032-2.574 2.1-2.1 2.1-2.98m13.546-38.54q0-2.438 1.558-2.438 1.287 0 1.897 1.557.406.949.88 5.825.542 4.877 1.084 10.973.61 6.096 1.016 8.67l.542 3.929 7.722-7.722q4.131-4.132 5.825-5.554 1.693-1.49 2.506-1.49.474 0 1.016.677.61.677.61 1.355 0 .474-.272.813-.203.27-.61.541-.338.204-1.15 1.084-.813.88-1.762 2.168-3.183 4.538-10.702 10.566-2.709 2.1-2.709 3.522 0 .948 1.22 1.558l7.247 3.387q5.012 2.37 8.331 4.741t3.319 3.658q0 1.422-1.355 1.422-1.219 0-3.59-1.626-2.37-1.693-2.98-1.693-.813 0-.813-.542 0-.745-8.263-3.793l-3.59-1.354.474 5.621q.203 2.236.203 3.523 0 2.844-1.422 2.844-2.168 0-2.777-2.98-.542-3.048-1.016-15.375-.407-10.905-1.016-14.224-.61-3.252-1.016-9.415-.407-6.164-.407-10.228m36.847 27.432q0-12.666 1.897-12.666.338 0 .677.135.407.136.948 1.016.542.813.542 2.303 0 .678-.135 2.303-.136 1.558-.136 3.522 0 5.487.61 13.344t1.287 10.295q.677 2.642 2.303 2.642 1.558 0 4.741-2.777 3.929-3.455 7.519-10.77 3.657-7.315 5.08-14.63 1.354-7.18 2.235-7.654.677-.474 1.422-.474 1.626 0 1.626 1.896 0 .949-1.016 7.925-.949 6.977-.949 10.025 0 4.267 1.694 10.634 1.76 6.367 1.76 7.18 0 .677-.541 1.083-.542.407-.948.474-.339.136-.542.136-1.22 0-2.439-3.455-1.151-3.454-2.1-6.908-.88-3.455-1.557-3.455-.136 0-.271.068-.136.068-.339.27-.135.136-.27.34-.136.203-.407.541-.203.34-.406.61-.136.27-.475.813t-.541.88q-2.98 4.674-6.638 7.79-3.59 3.115-6.096 3.115-2.845 0-4.268-1.287-1.422-1.219-2.302-4.47-.813-3.251-1.49-10.295-.475-4.47-.475-10.5z" style="fill:#1b9e14" transform="translate(-4.486 6.074)"/></g><g style="font-size:85.725px;line-height:1.25;fill:#1b9e14;stroke-width:.264583"><path d="M-45.252 107.39q0 1.2-.771 1.971-.686.686-1.286.857-.514.086-.943.086-2.057 0-2.915-4.2-.857-4.287-1.114-15.517-.343-16.202-1.286-16.202-.686 0-3.086 1.115t-7.287 3.343q-4.886 2.229-9.858 4.115l-7.2 2.743.513 15.516q.172 6 .172 7.801 0 9.601-1.972 9.601-.428 0-1.371-.6-1.8-1.286-2.658-8.744T-88.2 78.757q-.686-15.688-.686-24.86 0-7.458.686-9.087.515-1.286 1.286-2.143.772-.943 1.372-.943 1.371 0 2.743 17.916 1.371 17.831 2.743 17.831.172 0 1.286-.428 1.114-.515 5.572-2.143 4.544-1.63 11.402-3.772 5.915-1.972 6.858-2.915 1.114-.943 1.885-7.63.686-6.172 1.372-8.23.686-2.142 2.143-2.142 1.886 0 2.486 5.4.686 5.401.772 22.975.085 6.772.171 12.001.172 5.144.257 7.887.172 2.657.258 4.543.085 1.8.171 2.4t.086 1.115q.085.429.085.857z" style="font-family:Purisa;-inkscape-font-specification:Purisa" transform="matrix(-.92362 0 0 .92362 -21.559 2.192)"/></g><path d="M10.868 17.884c-.507 3.013-.408 6.078-.503 9.12-.041 1.327-.198 2.407.066 3.755.281 1.444.904 2.81 1.318 4.217.951 3.236 2.41 6.12 3.944 9.057.036.069.166-.037.233 0 .304.169.589.443.918.588.43.19 1.11.066 1.558.066 1.806 0 2.347.026 3.604-1.23.302-.302.764-.617.852-1.031.194-.915.047-.964-.582-1.472-.547-.442-1.065-1.042-1.51-1.576-1.476-1.772-2.6-3.806-3.954-5.667-.676-.93-1.403-1.73-1.844-2.833-.504-1.26-.763-2.617-1.251-3.886-.427-1.11-1.348-2.19-1.58-3.356-.125-.639-.207-1.198-.394-1.82-.118-.394-.068-2.958-.254-3.191-.2-.251-.414-.493-.621-.741m60.415-3.693c.298 4.25-.738 8.252-2.635 12.046-1.125 2.25-2.046 4.624-3.754 6.522-.614.682-1.32 1.556-2.042 2.109-.319.242-1.002.288-1.29.558-.015.016.14.2.167.243.225.363.458.647.652 1.02.404.781 1.556 2.025 2.345 2.355.393.166 1.082.063 1.509.063.194 0 .725.099.909 0 .286-.153.334-.399.655-.72 1.86-1.86 2.636-3.84 3.36-6.324.243-.833.587-1.59.79-2.438.69-2.87.725-6.195.725-9.157 0-.799-.05-5.387-.702-5.878-.212-.158-.459-.266-.689-.399" style="fill:#1b9e14;fill-opacity:1;stroke:none;stroke-width:.244374px;stroke-linecap:butt;stroke-linejoin:miter;stroke-opacity:1"/></svg>